<?xml version="1.0" encoding="UTF-8"?>
<svg id="Layer_2" data-name="Layer 2" xmlns="http://www.w3.org/2000/svg" viewBox="0 0 185.69 79.05">
  <defs>
    <style>
      .cls-1 {
        fill: #fff;
      }
    </style>
  </defs>
  <g id="Layer_1-2" data-name="Layer 1">
    <g>
      <path class="cls-1" d="M185.57,16.26c-.36-.72-1.32-.87-1.88-.31l-19.88,19.86-8.5,8.52c-1.82,1.83-4.15,2.67-6.49,1.71-1.92-.78-3.55-2.76-3.55-5.18l-.02-25.77c0-2.44-1.49-4.42-3.36-5.13-2.06-.78-4.52-.4-6.22,1.32l-28.94,29.37c-1.71,1.55-3.66,3.95-6.46,3.5-1.53-.25-4.47-1.72-4.73-3.69l-.51-28.38c-.04-2.19-2.11-4.16-3.71-4.67-1.98-.63-4.2-.17-5.75,1.41l-34.61,35.13c-1.91,1.94-3.72,3.11-6.31,2.2-1.97-.69-3.84-2.56-3.84-5.07v-22.85c0-2.82-1.52-4.9-3.92-5.72-2.54-.86-4.44.25-6.49,2.3l-21.03,21.01L.88,44.34c-.2.2-.39.4-.56.59-.99,1.08.61,2.59,1.65,1.55,1.67-1.66,4.35-1.91,6.37-1.04,1.39.6,3.12,2.64,3.12,4.71l.07,23.9c0,2.14,1.99,4.14,3.57,4.69,2.25.77,4.54.01,6.09-1.58l10.39-10.67,26.56-26.81c1.4-1.09,4.21-.11,5.2.77,1.03.91,2.38,2.77,2.38,4.35l.08,27.23c0,1.89,1.83,3.48,3.03,4.02,1.49.67,4.22,1.06,5.49-.23l34.62-33.06c1.29-1.41,4.11-4.39,7.3-3.14,3.97,1.56,3.76,5.8,3.78,8.31l-3.92,26.59c0,1.81,2.01,3.56,3.28,4.1,1.42.6,4.13.66,5.33-.54l60.64-60.47c.36-.36.45-.91.22-1.36Z"/>
      <ellipse class="cls-1" cx="36.37" cy="4.7" rx="6.95" ry="4.7"/>
    </g>
  </g>
</svg>