<svg version="1.1" id="Layer_1" xmlns="http://www.w3.org/2000/svg" xmlns:xlink="http://www.w3.org/1999/xlink" x="0px" y="0px"
	 width="100%" viewBox="0 0 2000 2000" enable-background="new 0 0 2000 2000" xml:space="preserve">
<path fill="#000000" opacity="1.000000" stroke="none" 
	d="
M921.000000,2001.000000 
	C614.000000,2001.000000 307.500000,2001.000000 1.000000,2001.000000 
	C1.000000,1334.333374 1.000000,667.666687 1.000000,1.000000 
	C667.666687,1.000000 1334.333374,1.000000 2001.000000,1.000000 
	C2001.000000,667.666687 2001.000000,1334.333374 2001.000000,2001.000000 
	C1641.166626,2001.000000 1281.333374,2001.000000 921.000000,2001.000000 
M1422.376343,1474.828369 
	C1408.996704,1508.363403 1395.616943,1541.898315 1381.937866,1576.183838 
	C1380.818604,1573.855103 1380.160645,1572.526489 1379.536621,1571.182251 
	C1330.328857,1465.175537 1281.140747,1359.159668 1231.840454,1253.196045 
	C1230.310913,1249.908325 1230.115479,1247.302246 1231.481812,1243.890747 
	C1255.180908,1184.715942 1278.691406,1125.465576 1302.344727,1066.272461 
	C1311.272705,1043.929932 1319.554932,1021.298645 1332.771484,1000.910767 
	C1346.427490,979.844910 1364.225464,964.081604 1388.282227,955.993042 
	C1400.513550,951.880615 1413.090820,949.581116 1426.019287,949.712219 
	C1430.293091,949.755554 1432.221558,948.047791 1432.042358,943.829285 
	C1431.985718,942.498535 1432.021240,941.163940 1432.005493,939.831238 
	C1431.964844,936.374878 1430.526978,934.719543 1426.766479,934.973022 
	C1420.951538,935.365051 1415.109375,935.351501 1409.279053,935.519836 
	C1378.143433,936.418701 1347.009155,937.936523 1315.871582,938.009766 
	C1294.244751,938.060669 1272.605225,936.259094 1250.989502,934.980713 
	C1245.876465,934.678223 1244.565552,937.074524 1244.332153,941.319824 
	C1244.003174,947.303162 1245.318970,949.243652 1250.226685,949.656433 
	C1256.028687,950.144470 1261.861572,950.367737 1267.635010,951.078979 
	C1284.886353,953.204285 1295.336182,962.334229 1297.556152,977.632629 
	C1298.239624,982.342957 1298.381226,987.432007 1297.357178,992.032837 
	C1294.475220,1004.979492 1292.007935,1018.199341 1287.322876,1030.531006 
	C1270.817749,1073.974121 1253.463257,1117.094604 1236.407593,1160.328125 
	C1229.189209,1178.625854 1221.912842,1196.900635 1214.335571,1216.011353 
	C1213.233276,1213.817749 1212.479004,1212.399658 1211.797729,1210.947510 
	C1204.393188,1195.165527 1197.103027,1179.328491 1189.513306,1163.636353 
	C1188.078247,1160.669189 1188.364502,1158.644409 1189.990723,1155.964966 
	C1212.283691,1119.233398 1234.471436,1082.437988 1256.673706,1045.651489 
	C1266.155518,1029.941406 1275.611084,1014.215576 1285.194214,998.304932 
	C1235.402222,968.267578 1185.930176,938.423157 1136.274658,908.468140 
	C1153.153076,880.480957 1169.723511,853.004395 1186.416382,825.324829 
	C1163.439941,811.434143 1140.941406,797.832336 1118.191162,784.078369 
	C1177.268799,699.949707 1235.973877,616.351440 1294.842773,532.520081 
	C1288.572754,528.097046 1282.501343,523.814270 1276.039429,519.255859 
	C1216.731812,603.699585 1157.591919,687.904480 1098.408569,772.171265 
	C1067.775391,753.689758 1037.570190,735.466492 1006.942444,716.988281 
	C970.027893,778.144531 933.221191,839.122009 896.383728,900.150574 
	C895.540100,899.692749 895.105408,899.478699 894.692017,899.229248 
	C856.912598,876.434692 819.158447,853.598145 781.310547,830.917847 
	C778.405273,829.176880 778.358215,827.006714 778.358765,824.294678 
	C778.383911,700.134216 778.306030,575.973572 778.496155,451.813416 
	C778.515259,439.364838 779.591064,426.849213 781.158691,414.489288 
	C783.046204,399.607788 788.799133,386.166260 802.538879,378.524231 
	C810.250305,374.235107 818.917053,370.522522 827.548035,369.270813 
	C844.302551,366.841003 861.326050,366.182556 878.258362,365.110474 
	C883.684265,364.766937 883.864807,361.281616 883.850098,357.537567 
	C883.835632,353.851227 883.231628,350.648590 878.088013,350.809296 
	C855.769531,351.506744 833.447083,352.248016 811.120911,352.491455 
	C769.973816,352.940094 728.820984,353.417694 687.674622,353.177368 
	C658.187134,353.005188 628.707275,351.640381 599.220154,350.979095 
	C597.420288,350.938751 594.709412,351.899139 593.919312,353.261810 
	C590.373047,359.378387 593.691345,364.936127 600.578857,365.052856 
	C603.411621,365.100861 606.246460,365.103912 609.076538,365.220886 
	C626.375305,365.935730 643.668701,366.451172 660.570496,371.007080 
	C678.874695,375.940979 691.645447,386.756500 695.027832,405.680511 
	C697.678101,420.508484 699.386719,435.721863 699.415222,450.768005 
	C699.719116,611.259399 699.604065,771.751648 699.604065,932.243652 
	C699.604065,934.012390 699.604065,935.781067 699.604065,937.721558 
	C697.572632,937.721558 696.098450,937.773315 694.628784,937.713806 
	C672.987976,936.836792 651.348999,935.909790 629.706421,935.078613 
	C623.355469,934.834656 622.225220,935.972595 622.128357,941.909668 
	C622.027405,948.096008 623.329590,949.231079 629.643127,949.742188 
	C636.599792,950.305298 643.604370,950.853882 650.443665,952.162964 
	C662.631714,954.495972 673.750000,959.367737 683.346375,967.663574 
	C661.993347,1003.073547 640.852722,1038.131348 619.599365,1073.375977 
	C624.562988,1076.435547 629.265686,1079.334229 633.968384,1082.232910 
	C622.522949,1083.656494 611.293274,1083.937134 600.062195,1084.151245 
	C594.208923,1084.262939 592.961792,1085.537842 592.989746,1091.699463 
	C593.015137,1097.293091 594.125793,1098.559082 599.688782,1098.482910 
	C618.015320,1098.232178 636.339722,1097.773682 654.666626,1097.656616 
	C657.472778,1097.638672 660.637207,1098.408203 663.042603,1099.822632 
	C680.057556,1109.828369 696.921204,1120.091187 713.825562,1130.284668 
	C724.425171,1136.676392 735.011475,1143.089966 745.827515,1149.629028 
	C697.438232,1229.815186 649.216431,1309.723755 600.817200,1389.926392 
	C615.788147,1398.981201 630.492920,1407.875000 645.568359,1416.993042 
	C605.516968,1474.034912 565.717346,1530.718140 525.832764,1587.522461 
	C532.347107,1592.079712 538.412842,1596.323120 544.682434,1600.709229 
	C585.062439,1543.217773 625.195618,1486.077637 665.349976,1428.907471 
	C703.892212,1452.158081 742.053040,1475.178589 780.316040,1498.260620 
	C810.709900,1447.906250 840.866150,1397.945557 871.315857,1347.498535 
	C872.285889,1349.518188 872.992188,1350.936646 873.654541,1352.375122 
	C923.714600,1461.103271 973.794556,1569.822266 1023.754700,1678.596313 
	C1026.106323,1683.716187 1029.834473,1685.788818 1034.990479,1686.138306 
	C1037.313110,1686.295898 1039.655396,1686.140869 1041.988159,1686.172363 
	C1047.393555,1686.245239 1050.791138,1684.027832 1052.911621,1678.699097 
	C1091.885254,1580.760742 1130.999390,1482.878174 1170.091675,1384.987061 
	C1175.513428,1371.410400 1180.976807,1357.850342 1186.705444,1343.573486 
	C1187.709839,1345.500244 1188.358643,1346.622314 1188.896973,1347.795166 
	C1239.372437,1457.785645 1289.861572,1567.769775 1340.237671,1677.805908 
	C1342.591553,1682.947388 1346.100830,1685.692383 1351.551025,1686.114258 
	C1353.870850,1686.293701 1356.215332,1686.195312 1358.547729,1686.160767 
	C1365.671997,1686.055298 1367.513672,1684.806519 1370.127808,1678.262085 
	C1451.102783,1475.548462 1532.081055,1272.836182 1613.036011,1070.114502 
	C1622.398560,1046.669678 1631.440552,1023.116821 1645.797974,1002.040894 
	C1662.150269,978.036560 1683.413208,960.768555 1711.937134,953.829956 
	C1721.876709,951.412170 1732.287720,950.913696 1742.492920,949.613647 
	C1746.815918,949.062927 1748.223022,947.064514 1747.888794,941.328430 
	C1747.682617,937.789062 1747.137329,934.793762 1742.269165,934.964966 
	C1725.449341,935.556274 1708.579956,935.304382 1691.804199,936.459961 
	C1657.833374,938.800049 1623.886475,938.899902 1589.891113,937.459656 
	C1566.085815,936.451172 1542.265503,935.786377 1518.447510,935.117188 
	C1516.695068,935.067993 1514.114868,935.685669 1513.273438,936.917908 
	C1509.350708,942.662598 1513.061646,949.439148 1519.970459,949.665527 
	C1522.135742,949.736450 1524.302124,949.773132 1526.468018,949.829224 
	C1544.185303,950.287476 1561.638550,952.223267 1578.331909,958.721130 
	C1597.239868,966.081055 1607.012207,982.067993 1605.416992,1002.232971 
	C1604.286011,1016.528870 1600.092896,1029.962280 1594.864502,1043.104248 
	C1570.136353,1105.262329 1545.242554,1167.354736 1520.431274,1229.479858 
	C1487.860596,1311.033936 1455.311890,1392.596802 1422.376343,1474.828369 
z"/>
<path fill="#FEFEFE" opacity="1.000000" stroke="none" 
	d="
M1422.565063,1474.492188 
	C1455.311890,1392.596802 1487.860596,1311.033936 1520.431274,1229.479858 
	C1545.242554,1167.354736 1570.136353,1105.262329 1594.864502,1043.104248 
	C1600.092896,1029.962280 1604.286011,1016.528870 1605.416992,1002.232971 
	C1607.012207,982.067993 1597.239868,966.081055 1578.331909,958.721130 
	C1561.638550,952.223267 1544.185303,950.287476 1526.468018,949.829224 
	C1524.302124,949.773132 1522.135742,949.736450 1519.970459,949.665527 
	C1513.061646,949.439148 1509.350708,942.662598 1513.273438,936.917908 
	C1514.114868,935.685669 1516.695068,935.067993 1518.447510,935.117188 
	C1542.265503,935.786377 1566.085815,936.451172 1589.891113,937.459656 
	C1623.886475,938.899902 1657.833374,938.800049 1691.804199,936.459961 
	C1708.579956,935.304382 1725.449341,935.556274 1742.269165,934.964966 
	C1747.137329,934.793762 1747.682617,937.789062 1747.888794,941.328430 
	C1748.223022,947.064514 1746.815918,949.062927 1742.492920,949.613647 
	C1732.287720,950.913696 1721.876709,951.412170 1711.937134,953.829956 
	C1683.413208,960.768555 1662.150269,978.036560 1645.797974,1002.040894 
	C1631.440552,1023.116821 1622.398560,1046.669678 1613.036011,1070.114502 
	C1532.081055,1272.836182 1451.102783,1475.548462 1370.127808,1678.262085 
	C1367.513672,1684.806519 1365.671997,1686.055298 1358.547729,1686.160767 
	C1356.215332,1686.195312 1353.870850,1686.293701 1351.551025,1686.114258 
	C1346.100830,1685.692383 1342.591553,1682.947388 1340.237671,1677.805908 
	C1289.861572,1567.769775 1239.372437,1457.785645 1188.896973,1347.795166 
	C1188.358643,1346.622314 1187.709839,1345.500244 1186.705444,1343.573486 
	C1180.976807,1357.850342 1175.513428,1371.410400 1170.091675,1384.987061 
	C1130.999390,1482.878174 1091.885254,1580.760742 1052.911621,1678.699097 
	C1050.791138,1684.027832 1047.393555,1686.245239 1041.988159,1686.172363 
	C1039.655396,1686.140869 1037.313110,1686.295898 1034.990479,1686.138306 
	C1029.834473,1685.788818 1026.106323,1683.716187 1023.754700,1678.596313 
	C973.794556,1569.822266 923.714600,1461.103271 873.654541,1352.375122 
	C872.992188,1350.936646 872.285889,1349.518188 871.315857,1347.498535 
	C840.866150,1397.945557 810.709900,1447.906250 780.316040,1498.260620 
	C742.053040,1475.178589 703.892212,1452.158081 665.349976,1428.907471 
	C625.195618,1486.077637 585.062439,1543.217773 544.682434,1600.709229 
	C538.412842,1596.323120 532.347107,1592.079712 525.832764,1587.522461 
	C565.717346,1530.718140 605.516968,1474.034912 645.568359,1416.993042 
	C630.492920,1407.875000 615.788147,1398.981201 600.817200,1389.926392 
	C649.216431,1309.723755 697.438232,1229.815186 745.827515,1149.629028 
	C735.011475,1143.089966 724.425171,1136.676392 713.825562,1130.284668 
	C696.921204,1120.091187 680.057556,1109.828369 663.042603,1099.822632 
	C660.637207,1098.408203 657.472778,1097.638672 654.666626,1097.656616 
	C636.339722,1097.773682 618.015320,1098.232178 599.688782,1098.482910 
	C594.125793,1098.559082 593.015137,1097.293091 592.989746,1091.699463 
	C592.961792,1085.537842 594.208923,1084.262939 600.062195,1084.151245 
	C611.293274,1083.937134 622.522949,1083.656494 633.968384,1082.232910 
	C629.265686,1079.334229 624.562988,1076.435547 619.599365,1073.375977 
	C640.852722,1038.131348 661.993347,1003.073547 683.346375,967.663574 
	C673.750000,959.367737 662.631714,954.495972 650.443665,952.162964 
	C643.604370,950.853882 636.599792,950.305298 629.643127,949.742188 
	C623.329590,949.231079 622.027405,948.096008 622.128357,941.909668 
	C622.225220,935.972595 623.355469,934.834656 629.706421,935.078613 
	C651.348999,935.909790 672.987976,936.836792 694.628784,937.713806 
	C696.098450,937.773315 697.572632,937.721558 699.604065,937.721558 
	C699.604065,935.781067 699.604065,934.012390 699.604065,932.243652 
	C699.604065,771.751648 699.719116,611.259399 699.415222,450.768005 
	C699.386719,435.721863 697.678101,420.508484 695.027832,405.680511 
	C691.645447,386.756500 678.874695,375.940979 660.570496,371.007080 
	C643.668701,366.451172 626.375305,365.935730 609.076538,365.220886 
	C606.246460,365.103912 603.411621,365.100861 600.578857,365.052856 
	C593.691345,364.936127 590.373047,359.378387 593.919312,353.261810 
	C594.709412,351.899139 597.420288,350.938751 599.220154,350.979095 
	C628.707275,351.640381 658.187134,353.005188 687.674622,353.177368 
	C728.820984,353.417694 769.973816,352.940094 811.120911,352.491455 
	C833.447083,352.248016 855.769531,351.506744 878.088013,350.809296 
	C883.231628,350.648590 883.835632,353.851227 883.850098,357.537567 
	C883.864807,361.281616 883.684265,364.766937 878.258362,365.110474 
	C861.326050,366.182556 844.302551,366.841003 827.548035,369.270813 
	C818.917053,370.522522 810.250305,374.235107 802.538879,378.524231 
	C788.799133,386.166260 783.046204,399.607788 781.158691,414.489288 
	C779.591064,426.849213 778.515259,439.364838 778.496155,451.813416 
	C778.306030,575.973572 778.383911,700.134216 778.358765,824.294678 
	C778.358215,827.006714 778.405273,829.176880 781.310547,830.917847 
	C819.158447,853.598145 856.912598,876.434692 894.692017,899.229248 
	C895.105408,899.478699 895.540100,899.692749 896.383728,900.150574 
	C933.221191,839.122009 970.027893,778.144531 1006.942444,716.988281 
	C1037.570190,735.466492 1067.775391,753.689758 1098.408569,772.171265 
	C1157.591919,687.904480 1216.731812,603.699585 1276.039429,519.255859 
	C1282.501343,523.814270 1288.572754,528.097046 1294.842773,532.520081 
	C1235.973877,616.351440 1177.268799,699.949707 1118.191162,784.078369 
	C1140.941406,797.832336 1163.439941,811.434143 1186.416382,825.324829 
	C1169.723511,853.004395 1153.153076,880.480957 1136.274658,908.468140 
	C1185.930176,938.423157 1235.402222,968.267578 1285.194214,998.304932 
	C1275.611084,1014.215576 1266.155518,1029.941406 1256.673706,1045.651489 
	C1234.471436,1082.437988 1212.283691,1119.233398 1189.990723,1155.964966 
	C1188.364502,1158.644409 1188.078247,1160.669189 1189.513306,1163.636353 
	C1197.103027,1179.328491 1204.393188,1195.165527 1211.797729,1210.947510 
	C1212.479004,1212.399658 1213.233276,1213.817749 1214.335571,1216.011353 
	C1221.912842,1196.900635 1229.189209,1178.625854 1236.407593,1160.328125 
	C1253.463257,1117.094604 1270.817749,1073.974121 1287.322876,1030.531006 
	C1292.007935,1018.199341 1294.475220,1004.979492 1297.357178,992.032837 
	C1298.381226,987.432007 1298.239624,982.342957 1297.556152,977.632629 
	C1295.336182,962.334229 1284.886353,953.204285 1267.635010,951.078979 
	C1261.861572,950.367737 1256.028687,950.144470 1250.226685,949.656433 
	C1245.318970,949.243652 1244.003174,947.303162 1244.332153,941.319824 
	C1244.565552,937.074524 1245.876465,934.678223 1250.989502,934.980713 
	C1272.605225,936.259094 1294.244751,938.060669 1315.871582,938.009766 
	C1347.009155,937.936523 1378.143433,936.418701 1409.279053,935.519836 
	C1415.109375,935.351501 1420.951538,935.365051 1426.766479,934.973022 
	C1430.526978,934.719543 1431.964844,936.374878 1432.005493,939.831238 
	C1432.021240,941.163940 1431.985718,942.498535 1432.042358,943.829285 
	C1432.221558,948.047791 1430.293091,949.755554 1426.019287,949.712219 
	C1413.090820,949.581116 1400.513550,951.880615 1388.282227,955.993042 
	C1364.225464,964.081604 1346.427490,979.844910 1332.771484,1000.910767 
	C1319.554932,1021.298645 1311.272705,1043.929932 1302.344727,1066.272461 
	C1278.691406,1125.465576 1255.180908,1184.715942 1231.481812,1243.890747 
	C1230.115479,1247.302246 1230.310913,1249.908325 1231.840454,1253.196045 
	C1281.140747,1359.159668 1330.328857,1465.175537 1379.536621,1571.182251 
	C1380.160645,1572.526489 1380.818604,1573.855103 1381.937866,1576.183838 
	C1395.616943,1541.898315 1408.996704,1508.363403 1422.565063,1474.492188 
M1170.068726,1312.464355 
	C1169.866699,1310.150635 1170.279419,1307.556641 1169.371094,1305.565186 
	C1154.495605,1272.953369 1139.499023,1240.396362 1124.353149,1207.909424 
	C1123.255981,1205.555908 1121.148804,1203.260620 1118.922119,1201.907593 
	C1081.229980,1179.001831 1043.445679,1156.247803 1005.674133,1133.472656 
	C1004.456787,1132.738647 1003.158508,1132.138672 1001.773865,1131.411011 
	C1000.947510,1132.765259 1000.344177,1133.744873 999.749634,1134.729614 
	C973.866943,1177.600830 948.016724,1220.491821 922.035950,1263.303589 
	C920.190308,1266.344849 920.082275,1268.636597 921.605347,1271.896973 
	C968.314148,1371.883667 1014.900452,1471.927612 1061.516724,1571.957520 
	C1062.078735,1573.163574 1062.783936,1574.302856 1063.607788,1575.813110 
	C1064.260376,1574.247925 1064.716553,1573.181885 1065.151123,1572.107178 
	C1100.055176,1485.811768 1134.957520,1399.515503 1170.068726,1312.464355 
z"/>
<path fill="#010101" opacity="1.000000" stroke="none" 
	d="
M1169.964355,1312.841797 
	C1134.957520,1399.515503 1100.055176,1485.811768 1065.151123,1572.107178 
	C1064.716553,1573.181885 1064.260376,1574.247925 1063.607788,1575.813110 
	C1062.783936,1574.302856 1062.078735,1573.163574 1061.516724,1571.957520 
	C1014.900452,1471.927612 968.314148,1371.883667 921.605347,1271.896973 
	C920.082275,1268.636597 920.190308,1266.344849 922.035950,1263.303589 
	C948.016724,1220.491821 973.866943,1177.600830 999.749634,1134.729614 
	C1000.344177,1133.744873 1000.947510,1132.765259 1001.773865,1131.411011 
	C1003.158508,1132.138672 1004.456787,1132.738647 1005.674133,1133.472656 
	C1043.445679,1156.247803 1081.229980,1179.001831 1118.922119,1201.907593 
	C1121.148804,1203.260620 1123.255981,1205.555908 1124.353149,1207.909424 
	C1139.499023,1240.396362 1154.495605,1272.953369 1169.371094,1305.565186 
	C1170.279419,1307.556641 1169.866699,1310.150635 1169.964355,1312.841797 
z"/>
</svg>